<svg width="32" height="32" viewBox="0 0 32 32" fill="none" xmlns="http://www.w3.org/2000/svg">
<path d="M23.7626 8.65896C22.3348 7.98367 20.8039 7.48616 19.2031 7.20121C19.174 7.19571 19.1448 7.20945 19.1298 7.23694C18.9329 7.59793 18.7148 8.06888 18.5621 8.43904C16.8404 8.17334 15.1275 8.17334 13.4411 8.43904C13.2883 8.06065 13.0623 7.59793 12.8645 7.23694C12.8495 7.21037 12.8204 7.19663 12.7913 7.20121C11.1914 7.48525 9.66039 7.98276 8.23181 8.65896C8.21944 8.66445 8.20884 8.67362 8.20181 8.68553C5.29784 13.1577 4.50232 17.52 4.89257 21.8282C4.89434 21.8493 4.90581 21.8694 4.92171 21.8822C6.83766 23.3326 8.6936 24.2132 10.5151 24.7968C10.5442 24.806 10.5751 24.795 10.5937 24.7702C11.0245 24.1637 11.4086 23.5242 11.7379 22.8516C11.7573 22.8122 11.7388 22.7655 11.6991 22.7499C11.0899 22.5117 10.5098 22.2212 9.95175 21.8914C9.90761 21.8648 9.90408 21.7998 9.94468 21.7686C10.0621 21.6779 10.1796 21.5835 10.2917 21.4882C10.312 21.4708 10.3402 21.4672 10.3641 21.4782C14.03 23.2035 17.9988 23.2035 21.6214 21.4782C21.6453 21.4663 21.6735 21.4699 21.6947 21.4873C21.8069 21.5826 21.9243 21.6779 22.0426 21.7686C22.0832 21.7998 22.0806 21.8648 22.0364 21.8914C21.4784 22.2277 20.8983 22.5117 20.2882 22.749C20.2485 22.7646 20.2308 22.8122 20.2503 22.8516C20.5866 23.5232 20.9707 24.1628 21.3936 24.7693C21.4113 24.795 21.4431 24.806 21.4722 24.7968C23.3025 24.2132 25.1584 23.3326 27.0744 21.8822C27.0912 21.8694 27.1018 21.8502 27.1036 21.8291C27.5706 16.8484 26.3213 12.5219 23.7917 8.68644C23.7855 8.67362 23.7749 8.66445 23.7626 8.65896ZM12.2854 19.2049C11.1817 19.2049 10.2723 18.1604 10.2723 16.8777C10.2723 15.5949 11.164 14.5504 12.2854 14.5504C13.4155 14.5504 14.3161 15.6041 14.2984 16.8777C14.2984 18.1604 13.4067 19.2049 12.2854 19.2049ZM19.7284 19.2049C18.6248 19.2049 17.7154 18.1604 17.7154 16.8777C17.7154 15.5949 18.6071 14.5504 19.7284 14.5504C20.8586 14.5504 21.7592 15.6041 21.7415 16.8777C21.7415 18.1604 20.8586 19.2049 19.7284 19.2049Z" fill="white"/>
</svg>
