<svg width="32" height="32" viewBox="0 0 32 32" fill="none" xmlns="http://www.w3.org/2000/svg">
<path fill-rule="evenodd" clip-rule="evenodd" d="M15.9962 5.59998C13.3965 5.60132 10.8821 6.52208 8.90248 8.19761C6.92289 9.87314 5.60725 12.1942 5.19079 14.7457C4.77433 17.2972 5.28422 19.9128 6.62929 22.1248C7.97435 24.3369 10.0669 26.001 12.5327 26.8198C13.0767 26.9208 13.2816 26.5836 13.2816 26.2969C13.2816 26.0102 13.2707 25.179 13.2671 24.2703C10.2207 24.9284 9.57697 22.9848 9.57697 22.9848C9.08012 21.7226 8.36203 21.3909 8.36203 21.3909C7.36832 20.7165 8.43639 20.7292 8.43639 20.7292C9.53708 20.8067 10.1155 21.8525 10.1155 21.8525C11.0911 23.5167 12.6778 23.0352 13.3016 22.754C13.3995 22.049 13.6842 21.5694 13.9979 21.2971C11.5644 21.0231 9.00758 20.0891 9.00758 15.9169C8.9925 14.8349 9.39632 13.7885 10.1355 12.9942C10.0231 12.7201 9.64769 11.6131 10.2425 10.1093C10.2425 10.1093 11.1618 9.81726 13.2544 11.2254C15.0493 10.7374 16.9431 10.7374 18.738 11.2254C20.8288 9.81726 21.7463 10.1093 21.7463 10.1093C22.3429 11.6095 21.9675 12.7165 21.8551 12.9942C22.5966 13.7886 23.0013 14.8368 22.9848 15.9205C22.9848 20.1017 20.4226 21.0231 17.9854 21.2917C18.3771 21.6307 18.7271 22.2924 18.7271 23.3093C18.7271 24.7661 18.7144 25.9381 18.7144 26.2969C18.7144 26.5872 18.912 26.9262 19.4669 26.8198C21.9331 26.0009 24.0258 24.3365 25.3708 22.1241C26.7159 19.9117 27.2255 17.2957 26.8086 14.7439C26.3916 12.1922 25.0753 9.8711 23.0951 8.19586C21.1148 6.52062 18.5998 5.60047 15.9998 5.59998H15.9962Z" fill="white"/>
<path d="M9.19234 21.2341C9.16876 21.2882 9.08172 21.3044 9.011 21.2665C8.94028 21.2287 8.8877 21.1583 8.91309 21.1025C8.93847 21.0466 9.0237 21.0321 9.09442 21.07C9.16514 21.1079 9.21954 21.18 9.19234 21.2341Z" fill="white"/>
<path d="M9.6365 21.7263C9.59895 21.7451 9.55598 21.7503 9.51497 21.7411C9.47395 21.7319 9.43743 21.7088 9.41165 21.6758C9.34093 21.6001 9.32641 21.4955 9.38081 21.4486C9.43521 21.4017 9.53314 21.4234 9.60386 21.4991C9.67458 21.5748 9.6909 21.6794 9.6365 21.7263Z" fill="white"/>
<path d="M10.0682 22.3519C10.0011 22.3988 9.88685 22.3519 9.82338 22.2581C9.80583 22.2413 9.79188 22.2211 9.78235 22.1988C9.77281 22.1765 9.76789 22.1525 9.76789 22.1283C9.76789 22.1041 9.77281 22.0801 9.78235 22.0578C9.79188 22.0355 9.80583 22.0153 9.82338 21.9985C9.89048 21.9534 10.0047 21.9985 10.0682 22.0904C10.1317 22.1824 10.1335 22.305 10.0682 22.3519Z" fill="white"/>
<path d="M10.6539 22.9578C10.5941 23.0245 10.4726 23.0064 10.3728 22.9163C10.2731 22.8261 10.2495 22.7035 10.3094 22.6386C10.3692 22.5737 10.4907 22.5917 10.5941 22.6801C10.6974 22.7684 10.7174 22.8928 10.6539 22.9578Z" fill="white"/>
<path d="M11.4753 23.3111C11.4481 23.3959 11.3248 23.4338 11.2014 23.3977C11.0781 23.3616 10.9965 23.2607 11.0201 23.1741C11.0437 23.0876 11.1688 23.0479 11.2939 23.0876C11.419 23.1272 11.4988 23.2228 11.4753 23.3111Z" fill="white"/>
<path d="M12.3711 23.3724C12.3711 23.4608 12.2696 23.5365 12.139 23.5383C12.0085 23.5401 11.9015 23.468 11.9015 23.3797C11.9015 23.2913 12.003 23.2156 12.1336 23.2138C12.2642 23.212 12.3711 23.2823 12.3711 23.3724Z" fill="white"/>
<path d="M13.2052 23.2336C13.2216 23.322 13.1309 23.4139 13.0003 23.4355C12.8698 23.4572 12.7555 23.4049 12.7392 23.3183C12.7229 23.2318 12.8172 23.138 12.9441 23.1146C13.071 23.0912 13.1889 23.1453 13.2052 23.2336Z" fill="white"/>
</svg>
