<svg width="229" height="68" viewBox="0 0 229 68" fill="none" xmlns="http://www.w3.org/2000/svg">
<path fill-rule="evenodd" clip-rule="evenodd" d="M34.4721 8.00004L33.6774 7.5378L32.8827 8.00004L20.7137 15.0782L19.9222 15.5385V16.4575V29.6967L8.53653 36.3193L7.74503 36.7797V37.6986V51.8549V52.7739L8.53653 53.2342L20.7055 60.3124L21.5002 60.7747L22.2948 60.3124L33.6692 53.6964L45.0435 60.3124L45.8381 60.7747L46.6328 60.3124L58.8017 53.2342L59.5932 52.7739V51.8549V37.6986V36.7797L58.8017 36.3193L47.4325 29.7062V16.4575V15.5385L46.641 15.0782L34.4721 8.00004ZM23.0946 17.3765L33.6774 11.2209L44.2601 17.3765V29.695L35.9701 34.5169C35.3592 33.9943 34.5672 33.6789 33.702 33.6789C32.8274 33.6789 32.0277 34.0012 31.4141 34.534L23.0946 29.695V17.3765ZM30.2173 37.5324L21.5002 32.4619L10.9174 38.6175V50.9361L21.5002 57.0915L32.081 50.9371V40.3143C31.0573 39.776 30.3316 38.7437 30.2173 37.5324ZM35.2553 40.349V50.9361L45.8381 57.0915L56.4208 50.9361V38.6175L45.8443 32.4655L37.1897 37.4996C37.0833 38.7516 36.324 39.8165 35.2553 40.349Z" fill="#03D498"/>
<path fill-rule="evenodd" clip-rule="evenodd" d="M33.6774 23.5553L45.8463 30.6335V44.7898L33.6774 51.8681L21.5084 44.7898V30.6335L33.6774 23.5553Z" stroke="white" stroke-width="3" stroke-linecap="round"/>
<path d="M103.489 50.5419V45.9519H90.801V45.6871L102.675 31.0788V26.7094H85.2285V31.1671H96.0305V31.4318L84.3713 45.9078V50.5419H103.489ZM113.948 50.5419V40.0821H115.063L122.093 50.5419H128.693L119.563 37.7871L128.308 26.7094H121.964L115.277 35.801H113.948V17H108.59V50.5419H113.948ZM139.153 47.2759C139.153 44.2372 138.531 43.7603 135.859 43.7456L135.723 43.7453C132.851 43.7453 132.294 44.1865 132.294 47.2759C132.294 50.2721 132.834 50.7903 135.587 50.8062L135.723 50.8066C138.51 50.8066 139.153 50.3212 139.153 47.2759ZM163.929 50.5419V45.4664H151.712V19.9128H146.097V50.5419H163.929ZM173.959 20.0452C173.959 17.4004 173.339 17.0983 171.04 17.0885L170.915 17.0883C168.515 17.0883 167.872 17.3531 167.872 20.0452C167.872 22.646 168.493 23.033 170.788 23.046L170.915 23.0464C173.316 23.0464 173.959 22.6933 173.959 20.0452ZM173.574 50.5419V26.7094H168.216V50.5419H173.574ZM185.662 50.5419V34.6537C186.605 31.6525 188.576 30.8581 191.32 30.8581C194.577 30.8581 195.306 32.4027 195.306 35.757V50.5419H200.664V34.2123C200.664 29.181 198.821 26.2682 192.948 26.2682C189.776 26.2682 186.99 27.2391 185.662 29.7106V26.7094H180.303V50.5419H185.662ZM212.667 50.5419V40.0821H213.78L220.81 50.5419H227.412L218.282 37.7871L227.026 26.7094H220.682L213.995 35.801H212.667V17H207.309V50.5419H212.667Z" fill="white"/>
</svg>
